<svg xmlns="http://www.w3.org/2000/svg" width="16" height="21" viewBox="0 0 16 21"><g><g><path fill="#fe3f3f" d="M16 9.936v9.604c0 .804-.51 1.46-1.135 1.46H1.135C.51 21 0 20.344 0 19.54V9.936C0 9.13.51 8.48 1.135 8.48h.406V6.566C1.54 3.025 4.327.065 7.81.001c.095-.002.285-.002.38 0 3.483.064 6.27 3.024 6.27 6.565v1.915h.405c.625 0 1.135.65 1.135 1.455zm-6.208 3.55c0-.92-.705-1.712-1.602-1.748a4.53 4.53 0 0 0-.38 0c-.897.036-1.602.827-1.602 1.748 0 .486.186.925.506 1.242v2.903c0 .332.276.613.605.613h1.362c.33 0 .605-.281.605-.613v-2.903c.32-.317.506-.756.506-1.242zm1.994-5.005V6.566c0-2.11-1.7-3.854-3.786-3.854-2.086 0-3.786 1.745-3.786 3.854v1.915z"/></g></g></svg>